<?xml version="1.0" encoding="utf-8"?>
<!-- Generator: Adobe Illustrator 28.1.0, SVG Export Plug-In . SVG Version: 6.00 Build 0)  -->
<svg version="1.1" id="Layer_1" xmlns="http://www.w3.org/2000/svg" xmlns:xlink="http://www.w3.org/1999/xlink" x="0px" y="0px"
	 viewBox="0 0 23.2 21.2" style="enable-background:new 0 0 23.2 21.2;" xml:space="preserve">
<style type="text/css">
	.st0{fill:none;stroke:#232323;stroke-width:2;stroke-miterlimit:10;}
</style>
<g>
	<path class="st0" d="M9.7,20.1H3.3c-1.2,0-2.3-1-2.3-2.3V4.4h13.4v1.3"/>
	<path class="st0" d="M10.9,6.7V4.1C10.9,2.4,9.5,1,7.8,1h0C6.1,1,4.7,2.4,4.7,4.1v2.6"/>
	<path class="st0" d="M19.3,12.2V9.4c0-1.3-1.1-2.4-2.4-2.4h0c-1.3,0-2.4,1.1-2.4,2.4v2.8"/>
	<path class="st0" d="M21.2,20.2h-8.8c-0.5,0-1-0.4-1-1v-8.8h10.7v8.8C22.2,19.7,21.8,20.2,21.2,20.2z"/>
</g>
</svg>
