<?xml version="1.0" encoding="utf-8"?>
<!-- Generator: Adobe Illustrator 28.1.0, SVG Export Plug-In . SVG Version: 6.00 Build 0)  -->
<svg version="1.1" id="Layer_1" xmlns="http://www.w3.org/2000/svg" xmlns:xlink="http://www.w3.org/1999/xlink" x="0px" y="0px"
	 viewBox="0 0 23.4 23.4" style="enable-background:new 0 0 23.4 23.4;" xml:space="preserve">
<style type="text/css">
	.st0{fill:#FF7900;}
	.st1{fill:#232323;}
</style>
<g>
	<path class="st0" d="M23.2,9.7c-0.8-4.8-4.7-8.8-9.6-9.5C5.7-1.1-1.1,5.7,0.2,13.7c0.8,4.8,4.7,8.8,9.5,9.5
		C17.7,24.5,24.6,17.7,23.2,9.7z M12.5,4.5v7.7c0,0.9-0.8,1.7-1.7,1.7V4.5H12.5z M11.7,16.6l5.2-5.1c0.3-0.3,0.8-0.3,1,0
		c0.1,0.1,0.2,0.3,0.2,0.5c0,0.2-0.1,0.4-0.2,0.5l-5.3,5.3c-0.5,0.5-1.3,0.5-1.8,0l-5.3-5.3c-0.3-0.3-0.3-0.8,0-1
		c0.1-0.1,0.3-0.2,0.5-0.2c0.2,0,0.4,0.1,0.5,0.2L11.7,16.6z"/>
	<path class="st1" d="M6,11.3c-0.2,0-0.4,0.1-0.5,0.2c-0.3,0.3-0.3,0.8,0,1l5.3,5.3c0.5,0.5,1.3,0.5,1.8,0l5.3-5.3
		c0.1-0.1,0.2-0.3,0.2-0.5c0-0.2-0.1-0.4-0.2-0.5c-0.3-0.3-0.8-0.3-1,0l-5.2,5.1l-5.1-5.1C6.4,11.3,6.2,11.3,6,11.3z"/>
	<path class="st1" d="M12.5,12.2V4.5h-1.7V14C11.8,14,12.5,13.2,12.5,12.2z"/>
</g>
</svg>
